<svg xmlns="http://www.w3.org/2000/svg" width="111" height="109" viewBox="0 0 111 109" version="1.1"><path d="M 53.828 12.037 C 52.908 12.573, 51.173 14.602, 49.972 16.545 C 48.089 19.593, 47.953 20.471, 48.980 22.953 C 51.396 28.785, 59.884 29.066, 62.043 23.386 C 63.310 20.054, 62.486 17.259, 59.201 13.750 C 56.342 10.697, 56.201 10.652, 53.828 12.037 M 54 19.833 C 54 20.842, 54.296 21.963, 54.658 22.325 C 55.719 23.385, 57.933 20.988, 57.334 19.427 C 56.541 17.363, 54 17.672, 54 19.833 M 50.667 30.667 C 50.300 31.033, 50 33.636, 50 36.451 C 50 41.159, 49.740 41.724, 46.750 43.514 C 44.375 44.935, 42.101 45.374, 38.305 45.141 C 31.825 44.744, 27.622 47.002, 25.221 52.171 C 24.009 54.780, 22.760 55.969, 21 56.188 C 18.929 56.447, 18.518 57.014, 18.607 59.500 C 18.735 63.084, 24.556 90.702, 25.963 94.404 L 26.950 97 55.440 97 C 87.589 97, 84.807 97.753, 86.828 88.500 C 92.056 64.557, 93.136 58.796, 92.637 57.496 C 92.321 56.673, 91.126 56, 89.980 56 C 88.557 56, 87.448 54.923, 86.477 52.599 C 84.393 47.613, 79.322 44.844, 72.759 45.109 C 64.942 45.426, 62 43.231, 62 37.085 C 62 34.508, 61.460 31.860, 60.800 31.200 C 59.535 29.935, 51.805 29.528, 50.667 30.667 M 55.158 38 C 55.158 39.375, 55.385 39.938, 55.662 39.250 C 55.940 38.563, 55.940 37.438, 55.662 36.750 C 55.385 36.063, 55.158 36.625, 55.158 38 M 50.500 47.110 C 49.400 47.750, 47.492 49.186, 46.260 50.302 C 44.357 52.024, 43.634 52.154, 41.463 51.165 C 37.330 49.282, 33.573 49.761, 31 52.500 L 28.651 55 55.500 55 L 82.349 55 80 52.500 C 77.425 49.759, 73.670 49.282, 69.528 51.169 C 67.257 52.204, 66.629 52.018, 64.057 49.555 C 60.777 46.412, 53.847 45.162, 50.500 47.110 M 24.313 63.250 C 24.604 64.487, 26.081 71.463, 27.595 78.750 L 30.349 92 34.174 92 C 38.733 92, 38.704 92.189, 36.482 76.926 C 33.972 59.684, 34.606 61, 28.812 61 C 24.107 61, 23.817 61.145, 24.313 63.250 M 40 63.824 C 40 66.656, 42.567 85.529, 43.527 89.750 C 43.964 91.672, 44.690 92, 48.519 92 L 53 92 53 76.500 L 53 61 46.500 61 C 40.035 61, 40 61.015, 40 63.824 M 58.667 61.667 C 58.300 62.033, 58 69.008, 58 77.167 L 58 92 62.764 92 L 67.527 92 69.346 78.750 C 70.346 71.463, 71.401 64.487, 71.691 63.250 C 72.195 61.095, 71.945 61, 65.775 61 C 62.232 61, 59.033 61.300, 58.667 61.667 M 77 61.401 C 77 62.745, 72.868 89.727, 72.506 90.750 C 72.195 91.626, 73.359 92, 76.393 92 L 80.724 92 81.953 86.250 C 84.619 73.783, 86.935 62.463, 86.967 61.750 C 86.985 61.337, 84.750 61, 82 61 C 79.250 61, 77 61.180, 77 61.401" stroke="none" fill="#5890f2" fill-rule="evenodd"/></svg>