<svg xmlns="http://www.w3.org/2000/svg" width="164" height="84" viewBox="0 0 164 84" version="1.1"><path d="M 26.812 15.039 C 16.984 16.169, 15.746 19.800, 16.178 46.233 L 16.500 65.966 19.768 69.233 L 23.036 72.500 60.467 72.785 C 102.413 73.104, 103.359 72.979, 106.328 66.722 C 107.710 63.810, 108 59.877, 108 44.067 C 108 24.171, 107.337 20.183, 103.503 17 C 102 15.752, 95.803 15.416, 66.598 15 C 47.294 14.725, 29.390 14.743, 26.812 15.039 M 22.223 19.557 C 20.038 21.086, 20 21.500, 20 43.484 L 20 65.855 22.678 67.962 C 25.309 70.031, 26.024 70.063, 62.652 69.784 C 98.990 69.507, 100 69.446, 102.041 67.404 C 104.034 65.411, 104.141 64.239, 104.230 43.494 C 104.322 21.962, 104.293 21.656, 102.051 19.840 C 99.934 18.126, 97.196 18, 62.112 18 C 29.639 18, 24.139 18.215, 22.223 19.557 M 133.357 21.513 C 133.037 22.345, 133.318 23.679, 133.981 24.477 C 135.018 25.726, 133.749 25.968, 124.843 26.214 C 116.443 26.446, 114.500 26.782, 114.500 28 C 114.500 29.206, 116.556 29.598, 125 30 C 130.895 30.281, 134.952 30.855, 134.250 31.309 C 132.421 32.492, 132.724 35, 134.695 35 C 136.934 35, 142 30.087, 142 27.917 C 142 26.444, 135.841 20, 134.434 20 C 134.161 20, 133.676 20.681, 133.357 21.513 M 29.409 29.377 C 29.118 30.134, 29.020 32.947, 29.190 35.627 L 29.500 40.500 37 40.500 L 44.500 40.500 44.820 36.595 C 44.995 34.448, 44.874 31.635, 44.551 30.345 C 44.003 28.164, 43.472 28, 36.950 28 C 31.917 28, 29.788 28.389, 29.409 29.377 M 61.640 28.773 C 61.361 29.225, 61.474 30.149, 61.892 30.825 C 62.452 31.731, 66.702 31.981, 78.076 31.777 C 90.996 31.545, 93.500 31.257, 93.500 30 C 93.500 28.742, 90.969 28.456, 77.824 28.225 C 69.203 28.074, 61.920 28.320, 61.640 28.773 M 33 35.060 C 33 37.985, 33.166 38.107, 36.750 37.810 C 40.006 37.541, 40.542 37.138, 40.816 34.750 C 41.116 32.149, 40.913 32, 37.066 32 C 33.197 32, 33 32.148, 33 35.060 M 117 41.500 L 113.608 45 117 48.500 C 118.866 50.425, 121.204 52, 122.196 52 C 124.280 52, 124.384 51.586, 122.965 48.934 C 121.973 47.082, 122.353 47, 131.965 47 C 141.333 47, 142 46.867, 142 45 C 142 43.125, 141.333 43, 131.345 43 C 121.086 43, 120.752 42.932, 122.345 41.171 C 126.521 36.557, 121.491 36.867, 117 41.500 M 29 52 C 29 53.870, 29.493 54.079, 33.250 53.807 C 36.224 53.592, 37.500 53.050, 37.500 52 C 37.500 50.950, 36.224 50.408, 33.250 50.193 C 29.493 49.921, 29 50.130, 29 52 M 43.500 51 C 42.354 52.854, 44.095 54, 48.059 54 C 51.333 54, 52 53.662, 52 52 C 52 50.338, 51.333 50, 48.059 50 C 45.891 50, 43.840 50.450, 43.500 51 M 58 52 C 58 53.652, 58.667 54, 61.833 54 C 66.140 54, 67.106 53.441, 66.324 51.402 C 65.990 50.532, 64.310 50, 61.893 50 C 58.667 50, 58 50.342, 58 52 M 72.480 51.032 C 71.339 52.878, 73.489 54.170, 77.123 53.823 C 81.908 53.365, 81.694 50.600, 76.843 50.195 C 74.831 50.028, 72.868 50.404, 72.480 51.032 M 87.480 51.032 C 86.339 52.878, 88.489 54.170, 92.123 53.823 C 96.908 53.365, 96.694 50.600, 91.843 50.195 C 89.831 50.028, 87.868 50.404, 87.480 51.032 M 28.238 59.215 C 28.550 60.149, 31.442 60.500, 38.833 60.500 C 52.827 60.500, 52.677 58.583, 38.655 58.215 C 30.171 57.992, 27.903 58.210, 28.238 59.215" stroke="none" fill="#6594eb" fill-rule="evenodd"/></svg>