<svg xmlns="http://www.w3.org/2000/svg" width="159" height="90" viewBox="0 0 159 90" version="1.1"><path d="M 17.250 17.662 C 16.287 18.051, 16 25.479, 16 50.048 C 16 80.871, 16.066 81.965, 17.993 82.996 C 19.348 83.721, 39.066 84.030, 79.517 83.960 L 139.047 83.858 140.579 81.520 C 141.886 79.524, 142.066 74.813, 141.805 49.341 C 141.637 32.928, 141.136 18.938, 140.691 18.250 C 140.057 17.271, 126.716 17.017, 79.191 17.079 C 45.811 17.122, 17.938 17.385, 17.250 17.662 M 19.959 24 C 19.937 26.200, 19.919 35.200, 19.919 44 C 19.919 52.800, 19.937 64.500, 19.959 70 L 20 80 79 80 L 138 80 138 50 L 138 20 79 20 L 20 20 19.959 24 M 30.250 29.641 C 28.223 30.494, 28.819 32.718, 31.250 33.370 C 34.195 34.159, 60.371 34.179, 62.418 33.393 C 64.932 32.429, 64.256 30.300, 61.250 29.715 C 57.672 29.018, 31.876 28.957, 30.250 29.641 M 108 36 C 106.349 37.651, 106 39.333, 106 45.633 C 106 52.132, 105.689 53.535, 103.908 55.080 C 100.962 57.634, 102.435 59.600, 105.695 57.464 C 107.075 56.560, 109.104 56.055, 110.203 56.343 C 111.302 56.630, 113.279 56.374, 114.597 55.774 C 116.508 54.903, 117.362 55.018, 118.825 56.341 C 119.833 57.254, 121.410 58, 122.329 58 C 123.248 58, 124 58.675, 124 59.500 C 124 60.747, 121.847 61.027, 111.250 61.158 C 104.237 61.244, 97.938 61.294, 97.250 61.269 C 96.563 61.243, 96 61.847, 96 62.611 C 96 63.742, 99.168 64, 113.058 64 L 130.115 64 127.308 58.901 C 125.763 56.097, 123.825 53.579, 123 53.305 C 122.175 53.032, 120.825 52.549, 120 52.232 C 117.433 51.247, 113.557 51.271, 112.250 52.280 C 110.629 53.531, 110.589 51.632, 112.175 48.684 C 113.987 45.317, 114.899 38.865, 113.926 36.305 C 112.848 33.470, 110.644 33.356, 108 36 M 28.781 40.364 C 28.533 41.664, 28.593 44.702, 28.915 47.114 L 29.500 51.500 51.500 51.783 C 63.600 51.938, 74.513 51.817, 75.750 51.513 C 77.795 51.012, 78 50.372, 78 44.481 L 78 38 53.617 38 L 29.233 38 28.781 40.364 M 109.787 41 C 109.275 44.489, 110.482 45.061, 111.370 41.750 C 112.194 38.675, 112.148 38, 111.113 38 C 110.626 38, 110.029 39.350, 109.787 41 M 33 45 L 33 48 53.500 48 L 74 48 74 45 L 74 42 53.500 42 L 33 42 33 45 M 29.481 72.031 C 28.388 73.800, 30.451 75.191, 33.628 74.828 C 37.648 74.369, 37.431 71.590, 33.344 71.194 C 31.608 71.025, 29.870 71.402, 29.481 72.031 M 43.481 72.031 C 42.388 73.800, 44.451 75.191, 47.628 74.828 C 51.648 74.369, 51.431 71.590, 47.344 71.194 C 45.608 71.025, 43.870 71.402, 43.481 72.031 M 57.481 72.031 C 56.388 73.800, 58.451 75.191, 61.628 74.828 C 65.648 74.369, 65.431 71.590, 61.344 71.194 C 59.608 71.025, 57.870 71.402, 57.481 72.031 M 71.667 71.667 C 69.886 73.447, 71.206 75, 74.500 75 C 76.825 75, 78 74.532, 78 73.607 C 78 71.527, 73.259 70.075, 71.667 71.667 M 85.008 71.963 C 81.140 74.436, 86.054 75.034, 108.070 74.770 C 127.221 74.539, 130.500 74.281, 130.500 73 C 130.500 71.720, 127.280 71.464, 108.500 71.255 C 95.792 71.113, 85.870 71.412, 85.008 71.963" stroke="none" fill="#65c9d5" fill-rule="evenodd"/></svg>