<svg xmlns="http://www.w3.org/2000/svg" width="110" height="121" viewBox="0 0 110 121" version="1.1"><path d="M 50 16.737 C 47.636 17.649, 17.235 43.946, 16.584 45.642 C 16.263 46.479, 16 57.857, 16 70.927 C 16 92.678, 16.155 94.830, 17.829 96.345 C 19.454 97.816, 23.390 98, 53.174 98 C 85.963 98, 86.731 97.954, 88.595 95.898 C 90.302 94.014, 90.534 91.805, 90.823 74.648 C 91.001 64.116, 90.854 53.119, 90.496 50.208 L 89.846 44.917 75.373 32.894 C 55.258 16.185, 53.813 15.265, 50 16.737 M 37.451 33.006 C 29.778 39.609, 23.362 45.424, 23.193 45.928 C 22.913 46.760, 28.471 52.337, 45.500 68.313 C 48.800 71.409, 52.125 73.955, 52.888 73.971 C 54.384 74.002, 58.070 70.817, 73.250 56.376 C 78.612 51.275, 83 46.729, 83 46.273 C 83 45.406, 82.818 45.239, 73.985 38.014 C 70.968 35.546, 68.275 33.273, 68 32.962 C 66.378 31.127, 53.120 21, 52.340 21 C 51.824 21, 45.124 26.403, 37.451 33.006 M 51 40 C 49.702 43.934, 49.600 44, 44.840 44 C 42.178 44, 40.006 44.337, 40.012 44.750 C 40.019 45.163, 41.594 46.517, 43.512 47.759 C 47.308 50.218, 47.562 51.089, 45.884 55.902 C 44.360 60.275, 45.241 60.681, 49.391 57.515 C 53.052 54.723, 53.834 54.798, 57.746 58.319 C 60.776 61.047, 61.575 59.862, 60.076 54.861 C 58.874 50.848, 58.927 50.631, 61.666 48.390 C 63.225 47.115, 64.838 46.056, 65.250 46.036 C 65.662 46.016, 66 45.550, 66 45 C 66 44.450, 63.821 44, 61.158 44 C 56.376 44, 56.302 43.951, 55.118 40 C 54.459 37.800, 53.560 36, 53.120 36 C 52.680 36, 51.726 37.800, 51 40 M 20 72.300 C 20 85.978, 20.350 91.950, 21.200 92.800 C 22.915 94.515, 83.085 94.515, 84.800 92.800 C 86.312 91.288, 86.528 53, 85.025 53 C 84.489 53, 80.101 56.817, 75.275 61.481 L 66.500 69.963 73.402 76.445 C 79.277 81.963, 80.115 83.157, 79.030 84.464 C 78.329 85.309, 77.377 86, 76.914 86 C 76.452 86, 73.187 83.300, 69.659 80 C 66.131 76.700, 62.877 74, 62.427 74 C 61.977 74, 60.376 75.181, 58.870 76.625 C 54.733 80.588, 52.123 80.212, 44.414 74.539 C 43.465 73.841, 41.321 75.295, 36.554 79.873 C 32.949 83.334, 29.437 85.979, 28.750 85.750 C 25.937 84.814, 27.227 81.964, 32.953 76.464 C 39.175 70.487, 40.069 68.697, 37.539 67.282 C 36.736 66.832, 32.968 63.435, 29.166 59.732 C 25.364 56.029, 21.747 53, 21.127 53 C 20.330 53, 20 58.651, 20 72.300" stroke="none" fill="#5e94f1" fill-rule="evenodd"/></svg>