<svg xmlns="http://www.w3.org/2000/svg" width="113" height="103" viewBox="0 0 113 103" version="1.1"><path d="M 48 14.282 C 44.425 17.718, 35.020 26.660, 27.100 34.153 C 16.710 43.985, 12.873 48.226, 13.319 49.389 C 13.659 50.275, 14.526 51, 15.245 51 C 15.964 51, 23.065 44.796, 31.026 37.213 C 56.606 12.846, 55.747 13.556, 57.740 15.121 C 59.552 16.544, 71.940 28.225, 87.179 42.878 C 93.041 48.515, 96.400 51.061, 97.446 50.659 C 98.301 50.331, 99 49.435, 99 48.667 C 99 47.900, 91.912 40.537, 83.250 32.306 C 59.157 9.412, 57.610 8.034, 56 8.035 C 55.175 8.035, 51.575 10.847, 48 14.282 M 39.726 38.295 L 24.953 52.500 24.976 71.643 C 24.997 88.162, 25.217 90.869, 26.582 91.393 C 28.646 92.185, 83.354 92.185, 85.418 91.393 C 86.785 90.869, 87 88.164, 87 71.496 L 87 52.207 79.750 45.242 C 61.377 27.593, 57.399 24.047, 56 24.068 C 55.175 24.080, 47.852 30.482, 39.726 38.295 M 42.722 42.301 L 29.944 54.500 30.222 70.500 L 30.500 86.500 35.893 86.807 C 38.859 86.976, 41.646 86.751, 42.087 86.307 C 42.528 85.863, 42.965 80.325, 43.058 74 C 43.151 67.675, 43.642 61.712, 44.149 60.750 C 44.944 59.239, 46.633 59, 56.516 59 C 70.011 59, 68.882 57.581, 69.254 75 L 69.500 86.500 75.750 86.798 L 82 87.095 82 70.626 L 82 54.156 69.471 42.328 C 62.580 35.823, 56.618 30.410, 56.221 30.301 C 55.824 30.191, 49.750 35.591, 42.722 42.301 M 48.667 64.667 C 48.300 65.033, 48 69.983, 48 75.667 L 48 86 56 86 L 64 86 64 75 L 64 64 56.667 64 C 52.633 64, 49.033 64.300, 48.667 64.667" stroke="none" fill="#5990f0" fill-rule="evenodd"/></svg>