<svg xmlns="http://www.w3.org/2000/svg" width="109" height="107" viewBox="0 0 109 107" version="1.1"><path d="M 17.750 20.080 C 16.134 21.021, 16.001 23.869, 16.015 57.300 C 16.024 78.344, 16.427 94.128, 16.978 95 C 18.442 97.318, 88.133 97.798, 91.619 95.514 C 93.989 93.961, 94 93.866, 94 74.907 L 94 55.861 91.750 56.180 C 89.537 56.495, 89.492 56.786, 89 74 L 88.500 91.500 55.067 91.764 C 28.986 91.969, 21.459 91.750, 20.833 90.764 C 19.907 89.305, 19.694 27.960, 20.607 25.582 C 21.128 24.224, 23.659 24, 38.485 24 C 52.987 24, 55.965 23.747, 57.063 22.424 C 58.147 21.117, 58.126 20.692, 56.936 19.939 C 54.947 18.681, 19.936 18.807, 17.750 20.080 M 58.092 36.963 C 43.758 51.276, 39.904 55.695, 39.126 58.713 C 38.589 60.796, 37.666 64.352, 37.075 66.616 C 36.484 68.880, 36 72.200, 36 73.995 L 36 77.258 41.250 76.562 C 44.138 76.180, 49.055 75.157, 52.179 74.289 C 57.545 72.799, 58.853 71.711, 75.929 54.544 C 86.375 44.042, 94 35.592, 94 34.516 C 94 31.899, 80.876 19, 78.213 19 C 76.784 19, 70.150 24.923, 58.092 36.963 M 61.500 40 L 45.523 56.001 51.166 61.644 L 56.808 67.287 72.904 51.188 C 81.757 42.334, 89 34.843, 89 34.541 C 89 33.568, 79.399 24, 78.422 24 C 77.902 24, 70.287 31.200, 61.500 40 M 42.551 62.250 C 41.554 65.477, 41.287 72, 42.152 72 C 43.712 72, 52 69.797, 52 69.382 C 52 68.712, 44.259 61, 43.586 61 C 43.229 61, 42.763 61.563, 42.551 62.250" stroke="none" fill="#fbf0e8" fill-rule="evenodd"/></svg>