<svg xmlns="http://www.w3.org/2000/svg" width="93" height="117" viewBox="0 0 93 117" version="1.1"><path d="M 27.095 17.089 C 23.390 18.570, 20.118 23.021, 19.463 27.471 C 19.137 29.687, 19.012 45.752, 19.185 63.171 C 19.500 94.833, 19.501 94.843, 21.849 97.341 C 26.026 101.784, 28.302 102.135, 50.829 101.807 L 71.966 101.500 75.233 98.232 L 78.500 94.964 78.767 60.232 C 79.126 13.531, 80.774 15.958, 48.782 16.063 C 38.177 16.098, 28.418 16.560, 27.095 17.089 M 28.894 22.114 C 24.267 23.812, 24 25.879, 24 59.936 C 24 89.786, 24.119 91.926, 25.910 94.139 C 27.789 96.462, 28.151 96.505, 48.398 96.807 L 68.977 97.114 71.488 94.603 L 74 92.091 74 59.627 C 74 41.772, 73.720 26.435, 73.379 25.545 C 71.925 21.757, 67.827 20.997, 49.300 21.079 C 39.510 21.122, 30.328 21.588, 28.894 22.114 M 28.655 25.829 C 27.203 27.434, 27 30.903, 27 54.174 C 27 78.720, 27.138 80.815, 28.853 82.367 C 30.477 83.836, 33.107 84.010, 50.075 83.772 L 69.443 83.500 70.707 81 C 71.622 79.190, 71.975 71.710, 71.985 53.885 C 71.999 30.485, 71.898 29.140, 69.927 26.635 L 67.855 24 49.082 24 C 32.166 24, 30.146 24.181, 28.655 25.829 M 32 54.024 L 32 79.047 49.250 78.774 L 66.500 78.500 66.792 57 C 66.953 45.175, 66.820 34.038, 66.497 32.250 L 65.909 29 48.955 29 L 32 29 32 54.024 M 46.040 88.452 C 44.688 90.081, 45.436 93.572, 47.288 94.276 C 49.382 95.073, 53 93.145, 53 91.232 C 53 87.410, 48.422 85.582, 46.040 88.452" stroke="none" fill="#5d92f1" fill-rule="evenodd"/></svg>