<svg xmlns="http://www.w3.org/2000/svg" width="144" height="161" viewBox="0 0 144 161" version="1.1"><path d="M 38.723 20.775 C 35.025 24.501, 32 28.001, 32 28.552 C 32 29.103, 35.150 32.680, 39 36.500 C 42.850 40.320, 46 44.007, 46 44.692 C 46 45.604, 42.712 46.014, 33.750 46.219 L 21.500 46.500 21.237 88 C 20.936 135.405, 20.247 132, 30.143 132 L 35.905 132 36.202 138.250 L 36.500 144.500 80.261 144.761 L 124.022 145.021 123.761 102.761 L 123.500 60.500 117.250 60.202 L 111 59.905 111 52.952 L 111 46 90.275 46 L 69.550 46 74.775 40.937 C 77.649 38.152, 80 35.648, 80 35.372 C 80 34.504, 69.345 24, 68.466 24 C 68.006 24, 66.591 24.975, 65.323 26.167 L 63.017 28.333 55.822 21.167 C 51.864 17.225, 47.911 14, 47.037 14 C 46.162 14, 42.421 17.049, 38.723 20.775 M 42.058 23.037 C 39.276 25.761, 37 28.269, 37 28.610 C 37 28.951, 40.373 32.696, 44.495 36.932 L 51.990 44.633 49.879 46.899 L 47.768 49.165 51.098 52.601 L 54.428 56.036 64.214 46.287 C 69.596 40.925, 74 36.051, 74 35.456 C 74 34.861, 72.729 33.156, 71.175 31.668 L 68.350 28.962 66.022 30.981 C 64.742 32.091, 63.320 33, 62.863 33 C 62.406 33, 58.676 29.644, 54.574 25.542 L 47.117 18.084 42.058 23.037 M 25 88.500 L 25 127 66 127 L 107 127 107 88.500 L 107 50 89.965 50 C 73.594 50, 72.969 50.073, 73.937 51.882 C 74.491 52.918, 75.576 54.007, 76.348 54.303 C 77.120 54.599, 78.702 56.177, 79.864 57.808 C 81.697 60.383, 81.782 60.936, 80.510 61.992 C 79.300 62.996, 77.934 62.143, 72.687 57.104 C 69.191 53.747, 65.933 51, 65.447 51 C 64.961 51, 62.220 53.314, 59.356 56.142 L 54.149 61.284 48.234 55.642 L 42.319 50 33.660 50 L 25 50 25 88.500 M 111.667 64.667 C 111.300 65.033, 111 80.060, 111 98.060 C 111 126.979, 110.816 130.857, 109.418 131.393 C 108.548 131.727, 92.573 132, 73.918 132 L 40 132 40 136.500 L 40 141 80 141 L 120 141 120 102.500 L 120 64 116.167 64 C 114.058 64, 112.033 64.300, 111.667 64.667 M 42.213 72.243 C 39.938 74.985, 42.419 76.104, 50.088 75.797 C 56.734 75.531, 57.500 75.293, 57.500 73.500 C 57.500 71.715, 56.736 71.469, 50.406 71.209 C 45.440 71.006, 42.983 71.316, 42.213 72.243 M 41.604 84.590 C 41.268 85.465, 41.247 86.590, 41.556 87.090 C 41.869 87.597, 53.117 88, 66.952 88 C 87.128 88, 91.885 87.742, 92.315 86.622 C 93.556 83.387, 90.789 83, 66.407 83 C 45.214 83, 42.138 83.197, 41.604 84.590 M 42.404 96.446 C 38.255 99.481, 41.849 100, 67 100 C 81.055 100, 92.129 99.600, 92.450 99.081 C 92.763 98.575, 92.288 97.431, 91.396 96.539 C 89.986 95.129, 86.790 94.935, 66.944 95.057 C 50.447 95.157, 43.640 95.543, 42.404 96.446 M 41.644 109.485 C 40.572 112.280, 44.637 113.063, 58.737 112.778 C 72.152 112.507, 72.508 112.443, 72.820 110.250 L 73.139 108 57.677 108 C 44.925 108, 42.114 108.260, 41.644 109.485" stroke="none" fill="#f17d59" fill-rule="evenodd"/><path d="M -0 80.507 L -0 161.013 72.250 160.757 L 144.500 160.500 144.756 80.250 L 145.012 -0 72.506 -0 L 0 0 -0 80.507 M 0.477 81 C 0.477 125.275, 0.600 143.388, 0.750 121.250 C 0.900 99.113, 0.900 62.888, 0.750 40.750 C 0.600 18.613, 0.477 36.725, 0.477 81 M 38.723 20.775 C 35.025 24.501, 32 28.001, 32 28.552 C 32 29.103, 35.150 32.680, 39 36.500 C 42.850 40.320, 46 44.007, 46 44.692 C 46 45.604, 42.712 46.014, 33.750 46.219 L 21.500 46.500 21.237 88 C 20.936 135.405, 20.247 132, 30.143 132 L 35.905 132 36.202 138.250 L 36.500 144.500 80.261 144.761 L 124.022 145.021 123.761 102.761 L 123.500 60.500 117.250 60.202 L 111 59.905 111 52.952 L 111 46 90.275 46 L 69.550 46 74.775 40.937 C 77.649 38.152, 80 35.648, 80 35.372 C 80 34.504, 69.345 24, 68.466 24 C 68.006 24, 66.591 24.975, 65.323 26.167 L 63.017 28.333 55.822 21.167 C 51.864 17.225, 47.911 14, 47.037 14 C 46.162 14, 42.421 17.049, 38.723 20.775 M 42.058 23.037 C 39.276 25.761, 37 28.269, 37 28.610 C 37 28.951, 40.373 32.696, 44.495 36.932 L 51.990 44.633 49.879 46.899 L 47.768 49.165 51.098 52.601 L 54.428 56.036 64.214 46.287 C 69.596 40.925, 74 36.051, 74 35.456 C 74 34.861, 72.729 33.156, 71.175 31.668 L 68.350 28.962 66.022 30.981 C 64.742 32.091, 63.320 33, 62.863 33 C 62.406 33, 58.676 29.644, 54.574 25.542 L 47.117 18.084 42.058 23.037 M 25 88.500 L 25 127 66 127 L 107 127 107 88.500 L 107 50 89.965 50 C 73.594 50, 72.969 50.073, 73.937 51.882 C 74.491 52.918, 75.576 54.007, 76.348 54.303 C 77.120 54.599, 78.702 56.177, 79.864 57.808 C 81.697 60.383, 81.782 60.936, 80.510 61.992 C 79.300 62.996, 77.934 62.143, 72.687 57.104 C 69.191 53.747, 65.933 51, 65.447 51 C 64.961 51, 62.220 53.314, 59.356 56.142 L 54.149 61.284 48.234 55.642 L 42.319 50 33.660 50 L 25 50 25 88.500 M 111.667 64.667 C 111.300 65.033, 111 80.060, 111 98.060 C 111 126.979, 110.816 130.857, 109.418 131.393 C 108.548 131.727, 92.573 132, 73.918 132 L 40 132 40 136.500 L 40 141 80 141 L 120 141 120 102.500 L 120 64 116.167 64 C 114.058 64, 112.033 64.300, 111.667 64.667 M 42.213 72.243 C 39.938 74.985, 42.419 76.104, 50.088 75.797 C 56.734 75.531, 57.500 75.293, 57.500 73.500 C 57.500 71.715, 56.736 71.469, 50.406 71.209 C 45.440 71.006, 42.983 71.316, 42.213 72.243 M 41.604 84.590 C 41.268 85.465, 41.247 86.590, 41.556 87.090 C 41.869 87.597, 53.117 88, 66.952 88 C 87.128 88, 91.885 87.742, 92.315 86.622 C 93.556 83.387, 90.789 83, 66.407 83 C 45.214 83, 42.138 83.197, 41.604 84.590 M 42.404 96.446 C 38.255 99.481, 41.849 100, 67 100 C 81.055 100, 92.129 99.600, 92.450 99.081 C 92.763 98.575, 92.288 97.431, 91.396 96.539 C 89.986 95.129, 86.790 94.935, 66.944 95.057 C 50.447 95.157, 43.640 95.543, 42.404 96.446 M 41.644 109.485 C 40.572 112.280, 44.637 113.063, 58.737 112.778 C 72.152 112.507, 72.508 112.443, 72.820 110.250 L 73.139 108 57.677 108 C 44.925 108, 42.114 108.260, 41.644 109.485" stroke="none" fill="#fbf8f6" fill-rule="evenodd"/></svg>