<svg xmlns="http://www.w3.org/2000/svg" width="98" height="91" viewBox="0 0 98 91" version="1.1"><path d="M 42.655 8.829 C 41.745 9.835, 41 12.310, 41 14.329 L 41 18 30.500 18 C 20.667 18, 20 18.127, 20 20 C 20 21.961, 20.667 22, 54.393 22 C 82.976 22, 88.877 21.763, 89.324 20.598 C 89.620 19.827, 89.593 18.927, 89.264 18.598 C 88.936 18.269, 84.017 18, 78.333 18 L 68 18 68 14.500 C 68 8.317, 65.569 7, 54.155 7 C 45.887 7, 44.045 7.293, 42.655 8.829 M 45.739 13.889 C 44.801 17.477, 46.292 18.099, 55.086 17.793 C 63.499 17.500, 63.500 17.500, 63.601 14.750 L 63.702 12 54.968 12 C 47.245 12, 46.176 12.219, 45.739 13.889 M 27.656 26.750 C 26.934 27.923, 30.421 79.348, 31.318 80.750 C 31.920 81.690, 37.771 82, 54.915 82 L 77.713 82 78.334 75.250 C 78.676 71.537, 79.431 60.850, 80.012 51.500 C 80.593 42.150, 81.246 33.216, 81.463 31.647 C 82.268 25.833, 83.066 26, 54.452 26 C 39.968 26, 27.910 26.337, 27.656 26.750 M 31.997 34.231 C 31.994 38.125, 33.248 56.099, 34.614 71.750 L 35.159 78 54.390 78 L 73.621 78 74.859 60.250 C 75.541 50.487, 76.188 39.800, 76.299 36.500 L 76.500 30.500 54.250 30.231 L 32 29.962 31.997 34.231 M 42.538 38.176 C 42.288 38.904, 42.626 46.700, 43.291 55.500 C 44.419 70.430, 44.634 71.500, 46.500 71.500 C 48.379 71.500, 48.478 70.952, 48.145 62.451 C 47.390 43.186, 46.631 37.547, 44.747 37.187 C 43.783 37.003, 42.789 37.448, 42.538 38.176 M 62.537 38.250 C 62.020 39.863, 60 63.962, 60 68.519 C 60 71.252, 60.402 72, 61.868 72 C 64.170 72, 64.734 68.760, 65.652 50.250 C 66.247 38.231, 66.152 37, 64.623 37 C 63.696 37, 62.757 37.563, 62.537 38.250" stroke="none" fill="#f17d59" fill-rule="evenodd"/></svg>